<?xml version="1.0" encoding="UTF-8"?>
<svg width="1024px" height="933px" viewBox="0 0 1024 933" version="1.1" xmlns="http://www.w3.org/2000/svg" xmlns:xlink="http://www.w3.org/1999/xlink">
    <!-- Generator: Sketch 63.1 (92452) - https://sketch.com -->
    <title>graph</title>
    <desc>Created with Sketch.</desc>
    <defs>
        <linearGradient x1="50%" y1="27.6800369%" x2="50%" y2="95.5290563%" id="linearGradient-1">
            <stop stop-color="#00FC89" offset="0%"></stop>
            <stop stop-color="#00F484" stop-opacity="0" offset="100%"></stop>
        </linearGradient>
    </defs>
    <g id="ðŸŒ-Website" stroke="none" stroke-width="1" fill="none" fill-rule="evenodd">
        <g id="muriel-pre-launch-desktop" transform="translate(0.000000, -396.000000)">
            <g id="graph" transform="translate(-147.000000, 397.000000)">
                <path d="M96.4673307,558.560944 C124.669618,500.080376 157.032153,470.840091 193.554935,470.840091 C248.339109,470.840091 244.584854,430.929747 298.845996,413.959073 C353.107138,396.988399 379.873088,413.139799 419.378296,355.016366 C458.883505,296.892932 498.654914,271.387404 547.25491,291.248045 C595.854907,311.108685 584.367486,374.795979 635.004904,374.795979 C685.642322,374.795979 650.719646,421.573843 717.774065,421.573843 C784.828485,421.573843 739.597362,351.199089 790.770472,329.618874 C841.943581,308.038659 784.855494,237.887203 909.943317,221.339671 C1035.03114,204.792138 979.347523,154.285251 1047.83342,138.584001 C1116.31932,122.882752 1067.04584,1 1177.80088,1" id="Path" stroke="#00FC89" stroke-width="2.69999981"></path>
                <path d="M98.054942,557.560944 C126.257229,499.080376 158.619764,469.840091 195.142547,469.840091 C249.92672,469.840091 246.172465,429.929747 300.433608,412.959073 C354.69475,395.988399 381.460699,412.139799 420.965908,354.016366 C460.471116,295.892932 500.242525,270.387404 548.842522,290.248045 C597.442518,310.108685 585.955098,373.795979 636.592515,373.795979 C687.229933,373.795979 652.307257,420.573843 719.361677,420.573843 C786.416096,420.573843 741.184973,350.199089 792.358083,328.618874 C843.531193,307.038659 786.443105,236.887203 911.530928,220.339671 C1036.61875,203.792138 980.935134,153.285251 1049.42103,137.584001 C1117.90693,121.882752 1068.63346,1.13686838e-13 1179.38849,1.13686838e-13 C1253.22517,1.13686838e-13 1284.35609,357.346616 1272.78125,1072.03985 L-4.54747351e-13,1072.03985 L98.054942,557.560944 Z" id="Path" fill="url(#linearGradient-1)" opacity="0.299999982"></path>
            </g>
        </g>
    </g>
</svg>