<?xml version="1.0" encoding="UTF-8"?>
<svg width="1328px" height="1036px" viewBox="0 0 1328 1036" version="1.1" xmlns="http://www.w3.org/2000/svg" xmlns:xlink="http://www.w3.org/1999/xlink">
    <!-- Generator: Sketch 63.1 (92452) - https://sketch.com -->
    <title>graph</title>
    <desc>Created with Sketch.</desc>
    <defs>
        <linearGradient x1="50%" y1="27.6800369%" x2="50%" y2="95.5290563%" id="linearGradient-1">
            <stop stop-color="#00FC89" offset="0%"></stop>
            <stop stop-color="#00F484" stop-opacity="0" offset="100%"></stop>
        </linearGradient>
    </defs>
    <g id="ðŸŒ-Website" stroke="none" stroke-width="1" fill="none" fill-rule="evenodd">
        <g id="graph" transform="translate(2.000000, 2.000000)">
            <path d="M0,503.522364 C9.98903256,482.808998 21.4515928,472.452315 34.3876806,472.452315 C53.7918124,472.452315 52.4620841,458.316379 71.6809621,452.305497 C90.8998401,446.294616 100.380133,452.015317 114.372573,431.428445 C128.365013,410.841573 142.451739,401.807712 159.665483,408.842198 C176.879227,415.876683 172.810471,438.434232 190.745854,438.434232 C208.681237,438.434232 196.311894,455.00259 220.062052,455.00259 C243.812211,455.00259 227.791696,430.076395 245.916817,422.432849 C264.041937,414.789304 243.821777,389.942199 288.126919,384.081191 C332.432061,378.220182 312.709353,360.331033 336.96653,354.769771 C361.223707,349.20851 343.771422,306.038579 383,306.038579 C422.228578,306.038579 407.098565,343.912873 427.511264,343.912873 C447.923963,343.912873 441.295296,329.891889 453.147648,329.891889 C465,329.891889 466.976165,329.159553 490.988082,322.091123 C515,315.022693 497.232066,297.437366 545.116033,297.437366 C593,297.437366 574.806641,384.081191 611,384.081191 C647.193359,384.081191 628.011719,348.066406 654.005859,348.066406 C680,348.066406 656.419922,306.038579 683,306.038579 C709.580078,306.038579 687.335938,275.5 727.109375,275.5 C766.882813,275.5 758.246094,290.457031 778,290.457031 C797.753906,290.457031 800,269.5 816,269.25 C832,269 824.917969,249.859375 861.507813,249.859375 C898.097656,249.859375 878.785156,224.917969 910.785156,224.917969 C942.785156,224.917969 915.3125,257.757813 941.65625,257.757813 C968,257.757813 948.789063,275.5 968,275.5 C987.210938,275.5 972.179688,235.996094 993.558594,235.996094 C1014.9375,235.996094 1002.37891,189.152344 1028.19531,189.152344 C1054.01172,189.152344 1038.61719,147.695312 1078.24609,147.695312 C1117.875,147.695312 1096.47656,177.316406 1112,177.316406 C1127.52344,177.316406 1124.11719,147 1136.84375,147 C1149.57031,147 1146.84766,106.722656 1174.67578,106.722656 C1202.50391,106.722656 1198.30469,72.2421875 1223.58203,72.2421875 C1248.85938,72.2421875 1246.45313,42.609375 1270.22656,42.3046875 C1293.3691,42.0080858 1299.89853,2.19981793 1323.64033,0.0871724408 C1324.07182,0.04877674 1324.73208,0.0197192597 1325.62109,0 L1325.62109,1082 L0,1082 L0,503.522364 Z" id="Path" fill="url(#linearGradient-1)" opacity="0.299999982"></path>
            <path d="M0,503.522364 C9.98903256,482.808998 21.4515928,472.452315 34.3876806,472.452315 C53.7918124,472.452315 52.4620841,458.316379 71.6809621,452.305497 C90.8998401,446.294616 100.380133,452.015317 114.372573,431.428445 C128.365013,410.841573 142.451739,401.807712 159.665483,408.842198 C176.879227,415.876683 172.810471,438.434232 190.745854,438.434232 C208.681237,438.434232 196.311894,455.00259 220.062052,455.00259 C243.812211,455.00259 227.791696,430.076395 245.916817,422.432849 C264.041937,414.789304 243.821777,389.942199 288.126919,384.081191 C332.432061,378.220182 312.709353,360.331033 336.96653,354.769771 C361.223707,349.20851 343.771422,306.038579 383,306.038579 C422.228578,306.038579 407.098565,343.912873 427.511264,343.912873 C447.923963,343.912873 441.295296,329.891889 453.147648,329.891889 C465,329.891889 466.976165,329.159553 490.988082,322.091123 C515,315.022693 497.232066,297.437366 545.116033,297.437366 C593,297.437366 574.806641,384.081191 611,384.081191 C647.193359,384.081191 628.011719,348.066406 654.005859,348.066406 C680,348.066406 656.419922,306.038579 683,306.038579 C709.580078,306.038579 687.335938,275.5 727.109375,275.5 C766.882813,275.5 758.246094,290.457031 778,290.457031 C797.753906,290.457031 800,269.5 816,269.25 C832,269 824.917969,249.859375 861.507813,249.859375 C898.097656,249.859375 878.785156,224.917969 910.785156,224.917969 C942.785156,224.917969 915.3125,257.757812 941.65625,257.757813 C968,257.757813 948.789063,275.5 968,275.5 C987.210938,275.5 972.179688,235.996094 993.558594,235.996094 C1014.9375,235.996094 1002.37891,189.152344 1028.19531,189.152344 C1054.01172,189.152344 1038.61719,147.695312 1078.24609,147.695312 C1117.875,147.695312 1096.47656,177.316406 1112,177.316406 C1127.52344,177.316406 1124.11719,147 1136.84375,147 C1149.57031,147 1146.84766,106.722656 1174.67578,106.722656 C1202.50391,106.722656 1198.30469,72.2421875 1223.58203,72.2421875 C1248.85938,72.2421875 1246.45313,42.609375 1270.22656,42.3046875 C1294,42 1300.24219,0 1325.62109,0" id="Path" stroke="#00FC89" stroke-width="2.69999981"></path>
        </g>
    </g>
</svg>