<?xml version="1.0" encoding="UTF-8"?>
<svg width="1458px" height="915px" viewBox="0 0 1458 915" version="1.1" xmlns="http://www.w3.org/2000/svg" xmlns:xlink="http://www.w3.org/1999/xlink">
    <!-- Generator: Sketch 64 (93537) - https://sketch.com -->
    <title>graph</title>
    <desc>Created with Sketch.</desc>
    <defs>
        <linearGradient x1="50%" y1="27.6800369%" x2="50%" y2="95.5290563%" id="linearGradient-1">
            <stop stop-color="#00FC89" offset="0%"></stop>
            <stop stop-color="#00F484" stop-opacity="0" offset="100%"></stop>
        </linearGradient>
    </defs>
    <g id="ðŸŒ-Website" stroke="none" stroke-width="1" fill="none" fill-rule="evenodd">
        <g id="graph" transform="translate(2.000000, 2.000000)">
            <path d="M0,552.887302 C10.9683495,530.143214 23.5546901,518.77117 37.7590218,518.77117 C59.0655195,518.77117 57.6054257,503.249358 78.7085074,496.649174 C99.8115892,490.04899 110.221322,496.330544 125.58557,473.725351 C140.949818,451.120159 156.417596,441.200625 175.318962,448.924766 C194.220328,456.648907 189.752674,481.41798 209.446428,481.41798 C229.140182,481.41798 215.558158,499.610687 241.636764,499.610687 C267.715369,499.610687 250.124215,472.240748 270.026308,463.847835 C289.928402,455.454922 267.725873,428.171827 316.374656,421.73621 C365.02344,415.300593 343.367133,395.657605 370.002464,389.551121 C396.637796,383.444638 377.474503,336.042362 420.54902,336.042362 C463.623536,336.042362 447.010189,377.629821 469.424133,377.629821 C491.838077,377.629821 484.559541,362.234231 497.573888,362.234231 C510.588235,362.234231 512.758142,361.430097 539.124169,353.668684 C565.490196,345.907271 545.980308,326.597893 598.558781,326.597893 C651.137255,326.597893 631.160233,421.73621 670.901961,421.73621 C710.643689,421.73621 689.581495,382.190564 718.124081,382.190564 C746.666667,382.190564 720.774816,336.042362 749.960784,336.042362 C779.146752,336.042362 754.721814,302.509804 798.394608,302.509804 C842.067402,302.509804 832.583946,318.933211 854.27451,318.933211 C875.965074,318.933211 878.431373,295.921569 896,295.647059 C913.568627,295.372549 905.792279,274.355392 945.969363,274.355392 C986.146446,274.355392 964.940564,246.96875 1000.07782,246.96875 C1035.21507,246.96875 1005.04902,283.028186 1033.97549,283.028186 C1062.90196,283.028186 1041.8076,302.509804 1062.90196,302.509804 C1083.99632,302.509804 1067.49142,259.132966 1090.9663,259.132966 C1114.44118,259.132966 1100.65135,207.696691 1128.99877,207.696691 C1157.3462,207.696691 1140.4424,162.175245 1183.9565,162.175245 C1227.47059,162.175245 1203.97426,194.700368 1221.01961,194.700368 C1238.06495,194.700368 1234.32475,161.411765 1248.29902,161.411765 C1262.27328,161.411765 1259.2837,117.185662 1289.84007,117.185662 C1320.39645,117.185662 1315.78554,79.3247549 1343.54105,79.3247549 C1371.29657,79.3247549 1368.65441,46.7867647 1394.75858,46.4522059 C1420.17,46.1265255 1427.33956,2.41548635 1453.40899,0.0957187585 C1453.88278,0.0535587733 1454.60777,0.0216525204 1455.58395,0 L1455.58395,956.078431 L0,956.078431 L0,552.887302 Z" id="Path" fill="url(#linearGradient-1)" opacity="0.299999982"></path>
            <path d="M0,552.887302 C10.9683495,530.143214 23.5546901,518.77117 37.7590218,518.77117 C59.0655195,518.77117 57.6054257,503.249358 78.7085074,496.649174 C99.8115892,490.04899 110.221322,496.330544 125.58557,473.725351 C140.949818,451.120159 156.417596,441.200625 175.318962,448.924766 C194.220328,456.648907 189.752674,481.41798 209.446428,481.41798 C229.140182,481.41798 215.558158,499.610687 241.636764,499.610687 C267.715369,499.610687 250.124215,472.240748 270.026308,463.847835 C289.928402,455.454922 267.725873,428.171827 316.374656,421.73621 C365.02344,415.300593 343.367133,395.657605 370.002464,389.551121 C396.637796,383.444638 377.474503,336.042362 420.54902,336.042362 C463.623536,336.042362 447.010189,377.629821 469.424133,377.629821 C491.838077,377.629821 484.559541,362.234231 497.573888,362.234231 C510.588235,362.234231 512.758142,361.430097 539.124169,353.668684 C565.490196,345.907271 545.980308,326.597893 598.558781,326.597893 C651.137255,326.597893 631.160233,421.73621 670.901961,421.73621 C710.643689,421.73621 689.581495,382.190564 718.124081,382.190564 C746.666667,382.190564 720.774816,336.042362 749.960784,336.042362 C779.146752,336.042362 754.721814,302.509804 798.394608,302.509804 C842.067402,302.509804 832.583946,318.933211 854.27451,318.933211 C875.965074,318.933211 878.431373,295.921569 896,295.647059 C913.568627,295.372549 905.792279,274.355392 945.969363,274.355392 C986.146446,274.355392 964.940564,246.96875 1000.07782,246.96875 C1035.21507,246.96875 1005.04902,283.028186 1033.97549,283.028186 C1062.90196,283.028186 1041.8076,302.509804 1062.90196,302.509804 C1083.99632,302.509804 1067.49142,259.132966 1090.9663,259.132966 C1114.44118,259.132966 1100.65135,207.696691 1128.99877,207.696691 C1157.3462,207.696691 1140.4424,162.175245 1183.9565,162.175245 C1227.47059,162.175245 1203.97426,194.700368 1221.01961,194.700368 C1238.06495,194.700368 1234.32475,161.411765 1248.29902,161.411765 C1262.27328,161.411765 1259.2837,117.185662 1289.84007,117.185662 C1320.39645,117.185662 1315.78554,79.3247549 1343.54105,79.3247549 C1371.29657,79.3247549 1368.65441,46.7867647 1394.75858,46.4522059 C1420.86275,46.1176471 1427.71691,0 1455.58395,0" id="Path" stroke="#00FC89" stroke-width="2.96470567"></path>
        </g>
    </g>
</svg>